# Blender 3.3.0
# www.blender.org
mtllib untitled.mtl
o Cube
v -1.000000 1.000000 1.000000
v -1.000000 1.000000 -1.000000
v 1.000000 1.000000 1.000000
v 1.000000 1.000000 -1.000000
v -0.590776 1.762241 0.050376
v -0.590776 1.762241 -0.050376
v 0.590776 1.762241 -0.195218
v 0.590776 1.762241 0.195218
v -1.697290 0.033919 1.697290
v -1.697290 0.033919 -1.697290
v 1.697290 0.033919 -1.697290
v 1.697290 0.033919 1.697290
v -1.697290 1.327664 1.697290
v -1.697290 1.327664 -1.697290
v 1.697290 1.327664 -1.697290
v 1.697290 1.327664 1.697290
v -1.000000 1.762241 1.000000
v -1.000000 1.762241 -1.000000
v 1.000000 1.762241 -1.000000
v 1.000000 1.762241 1.000000
v -0.590776 18.178516 0.050376
v -0.590776 18.178516 -0.050376
v 0.590776 18.178516 -0.195218
v 0.590776 18.178516 0.195218
v -0.011058 21.286821 0.050376
v -0.011058 21.286821 -0.050376
v 0.590776 21.286821 -0.093214
v 0.590776 21.286821 0.093214
v -0.318665 1.762241 -0.195218
v -0.318665 1.762241 0.195218
v -0.318665 18.178516 -0.195218
v -0.318665 18.178516 0.195218
v 0.261054 21.286821 -0.104174
v 0.261054 21.286821 0.104174
v 0.663949 -9.086445 -0.663949
v -0.876379 -9.340940 0.876379
v 0.876379 -9.340940 0.876379
v 0.876379 -9.340940 -0.876379
v -0.876379 -9.340940 -0.876379
v -0.876379 -10.053579 0.876379
v 0.876379 -10.053579 0.876379
v 0.876379 -10.053579 -0.876379
v -0.876379 -10.053579 -0.876379
v -0.663949 -1.000000 -0.663949
v -0.663949 -1.000000 0.663949
v -0.663949 -9.086445 0.663949
v 0.663949 -9.086445 0.663949
v 0.663949 -1.000000 0.663949
v 0.663949 -1.000000 -0.663949
v -0.663949 -9.086445 -0.663949
v -0.200252 -3.880770 0.663949
v -0.663949 -1.834127 0.663949
v -0.663949 -3.880770 0.200252
v -0.200252 -3.880770 -0.663949
v -0.663949 -3.880770 -0.200252
v -0.663949 -1.834127 -0.663949
v 0.200252 -3.880770 0.663949
v 0.663949 -3.880770 0.200252
v 0.663949 -1.834127 0.663949
v 0.200252 -3.880770 -0.663949
v 0.663949 -1.834127 -0.663949
v 0.663949 -3.880770 -0.200252
v -0.663949 -6.205674 -0.200252
v -0.200252 -6.205674 -0.663949
v -0.663949 -8.252317 -0.663949
v -0.663949 -6.205674 0.200252
v -0.663949 -8.252317 0.663949
v -0.200252 -6.205674 0.663949
v 0.663949 -6.205674 0.200252
v 0.200252 -6.205674 0.663949
v 0.663949 -8.252317 0.663949
v 0.663949 -6.205674 -0.200252
v 0.663949 -8.252317 -0.663949
v 0.200252 -6.205674 -0.663949
v 0.381031 -7.686481 -0.663949
v 0.381031 -2.399964 -0.663949
v 0.663949 -2.399964 -0.381031
v 0.663949 -7.686481 -0.381031
v 0.381031 -2.399964 0.663949
v 0.381031 -7.686481 0.663949
v 0.663949 -7.686481 0.381031
v 0.663949 -2.399964 0.381031
v -0.663949 -2.399964 0.381031
v -0.663949 -7.686481 0.381031
v -0.381031 -7.686481 0.663949
v -0.381031 -2.399964 0.663949
v -0.663949 -7.686481 -0.381031
v -0.663949 -2.399964 -0.381031
v -0.381031 -2.399964 -0.663949
v -0.381031 -7.686481 -0.663949
vn -0.9862 -0.1657 -0.0000
vn -0.0000 -0.1657 -0.9862
vn 0.9862 -0.1657 -0.0000
vn 1.0000 -0.0000 -0.0000
vn 0.8109 -0.5853 -0.0000
vn -0.0000 0.8487 -0.5289
vn -0.8109 -0.5853 -0.0000
vn -1.0000 -0.0000 -0.0000
vn -0.0000 -0.0000 1.0000
vn -0.0000 -0.5853 -0.8109
vn 0.5289 0.8487 -0.0000
vn -0.5289 0.8487 -0.0000
vn -0.0000 1.0000 -0.0000
vn -0.9830 0.1833 -0.0000
vn -0.4699 -0.0000 -0.8827
vn 0.0088 0.0302 0.9995
vn -0.3418 0.0775 -0.9366
vn 0.0088 0.0302 -0.9995
vn -0.3418 0.0775 0.9366
vn -0.0000 -0.0000 -1.0000
vn -0.4699 -0.0000 0.8827
vn -0.0000 -0.5853 0.8109
vn -0.0000 0.8487 0.5289
vn -0.0000 0.6408 -0.7677
vn -0.0000 -0.1657 0.9862
vn -0.7677 0.6408 -0.0000
vn 0.7677 0.6408 -0.0000
vn -0.0000 0.6408 0.7677
vn -0.0000 -1.0000 -0.0000
vn -0.6667 -0.3333 0.6667
vn -0.6667 -0.3333 -0.6667
vn 0.6667 -0.3333 0.6667
vn 0.6667 -0.3333 -0.6667
vn -0.6667 0.3333 -0.6667
vn -0.6667 0.3333 0.6667
vn 0.6667 0.3333 0.6667
vn 0.6667 0.3333 -0.6667
vn 0.7071 -0.0000 -0.7071
vn 0.7071 -0.0000 0.7071
vn -0.7071 -0.0000 0.7071
vn -0.7071 -0.0000 -0.7071
vt 0.060026 0.904769
vt 0.509625 0.248219
vt 0.488143 0.338978
vt 0.465551 0.000134
vt 0.131018 0.999866
vt 0.062100 0.490413
vt 0.002025 0.800037
vt 0.509625 0.160731
vt 0.495078 0.077696
vt 0.000134 0.655106
vt 0.204605 0.820518
vt 0.938747 0.352982
vt 0.209231 0.820973
vt 0.938792 0.339247
vt 0.938374 0.490145
vt 0.241561 0.754970
vt 0.163884 0.753324
vt 0.938733 0.431137
vt 0.938792 0.412262
vt 0.161375 0.768917
vt 0.111858 0.881109
vt 0.212420 0.990730
vt 0.198508 0.499921
vt 0.083935 0.688513
vt 0.072964 0.795547
vt 0.140356 0.855116
vt 0.272889 0.926550
vt 0.272889 0.600420
vt 0.129056 0.703137
vt 0.109866 0.786737
vt 0.161593 0.834388
vt 0.257490 0.857068
vt 0.252452 0.678804
vt 0.152513 0.721168
vt 0.136006 0.786145
vt 0.152226 0.346817
vt 0.151769 0.341132
vt 0.147616 0.485487
vt 0.150636 0.428574
vt 0.151444 0.407536
vt 0.013691 0.381424
vt 0.008427 0.377523
vt 0.005960 0.442884
vt 0.008901 0.414692
vt 0.015255 0.407300
vt 0.938461 0.475225
vt 0.219198 0.749869
vt 0.938710 0.368169
vt 0.197240 0.804540
vt 0.148603 0.470866
vt 0.152732 0.363062
vt 0.007361 0.429950
vt 0.000134 0.395139
vt 0.012976 0.394199
vt 0.619387 0.002293
vt 0.000639 0.114644
vt 0.653071 0.094594
vt 0.656960 0.040292
vt 0.615012 0.016601
vt 0.545995 0.181070
vt 0.509893 0.023238
vt 0.631395 0.080113
vt 0.639879 0.051427
vt 0.615774 0.038667
vt 0.516427 0.097587
vt 0.388783 0.041513
vt 0.399721 0.301945
vt 0.409432 0.238684
vt 0.673960 0.108855
vt 0.000992 0.235930
vt 0.673960 0.032156
vt 0.000134 0.175521
vt 0.410799 0.170577
vt 0.403740 0.103403
vt 0.525458 0.000134
vt 0.587279 0.194200
vt 0.003836 0.052037
vt 0.002813 0.297270
vt 0.261683 0.214147
vt 0.367614 0.235486
vt 0.260669 0.253262
vt 0.258238 0.075153
vt 0.260693 0.273534
vt 0.361375 0.297498
vt 0.353297 0.048395
vt 0.261488 0.193266
vt 0.260928 0.153869
vt 0.368751 0.172221
vt 0.258700 0.094856
vt 0.364094 0.109495
vt 0.260522 0.133142
vt 0.143309 0.273563
vt 0.142335 0.077100
vt 0.043809 0.054449
vt 0.041345 0.296127
vt 0.143189 0.253377
vt 0.038897 0.234590
vt 0.142472 0.214627
vt 0.142256 0.155311
vt 0.142261 0.194251
vt 0.038303 0.175076
vt 0.141912 0.135051
vt 0.039277 0.115664
vt 0.142616 0.096882
vt 0.067033 0.107289
vt 0.334793 0.102353
vt 0.336200 0.122729
vt 0.066181 0.127248
vt 0.339277 0.183208
vt 0.065812 0.185811
vt 0.066280 0.165414
vt 0.339225 0.162156
vt 0.338196 0.243858
vt 0.066837 0.244460
vt 0.066833 0.224079
vt 0.339352 0.223105
vt 0.069101 0.282567
vt 0.335436 0.282496
vt 0.333247 0.301901
vt 0.329315 0.065224
vt 0.070573 0.302089
vt 0.069069 0.069369
s 0
f 45/68/1 1/2/1 2/3/1 44/67/1
f 44/66/2 2/4/2 4/9/2 49/74/2
f 49/74/3 4/9/3 3/8/3 48/73/3
f 59/88/4 61/90/4 49/74/4 48/73/4
f 2/5/5 1/1/5 9/21/5 10/22/5
f 8/19/4 7/18/4 23/39/4 24/40/4
f 18/33/6 19/34/6 15/29/6 14/28/6
f 3/7/7 4/10/7 11/24/7 12/25/7
f 12/25/4 11/24/4 15/29/4 16/30/4
f 10/22/8 9/21/8 13/26/8 14/27/8
f 9/21/9 12/25/9 16/30/9 13/26/9
f 1/1/10 3/7/10 12/25/10 9/21/10
f 19/34/11 20/35/11 16/30/11 15/29/11
f 17/31/12 18/32/12 14/27/12 13/26/12
f 5/11/13 6/13/13 18/32/13 17/31/13
f 29/47/13 7/17/13 19/34/13 18/33/13
f 7/17/13 8/20/13 20/35/13 19/34/13
f 30/49/13 5/11/13 17/31/13
f 22/37/14 21/36/14 25/41/14 26/42/14
f 6/14/8 5/12/8 21/36/8 22/37/8
f 30/48/9 8/19/9 24/40/9 32/51/9
f 29/46/15 6/15/15 22/38/15 31/50/15
f 33/53/13 26/42/13 25/41/13 34/54/13
f 32/51/16 24/40/16 28/45/16 34/54/16
f 31/50/17 22/38/17 26/43/17 33/52/17
f 24/40/4 23/39/4 27/44/4 28/45/4
f 23/39/18 31/50/18 33/52/18 27/44/18
f 21/36/19 32/51/19 34/54/19 25/41/19
f 27/44/13 33/53/13 34/54/13 28/45/13
f 7/18/20 29/46/20 31/50/20 23/39/20
f 5/12/21 30/48/21 32/51/21 21/36/21
f 8/20/13 30/49/13 17/31/13 20/35/13
f 6/16/13 29/47/13 18/33/13
f 4/10/22 2/6/22 10/23/22 11/24/22
f 11/24/20 10/23/20 14/28/20 15/29/20
f 20/35/23 17/31/23 13/26/23 16/30/23
f 50/75/24 35/55/24 38/59/24 39/61/24
f 48/73/25 3/8/25 1/2/25 45/68/25
f 54/82/20 60/89/20 74/104/20 64/93/20
f 61/90/20 56/85/20 44/66/20 49/74/20
f 52/80/9 59/88/9 48/73/9 45/68/9
f 36/57/8 39/60/8 43/65/8 40/62/8
f 46/69/26 50/76/26 39/60/26 36/57/26
f 35/55/27 47/71/27 37/58/27 38/59/27
f 47/71/28 46/69/28 36/57/28 37/58/28
f 43/65/29 42/64/29 41/63/29 40/62/29
f 39/61/20 38/59/20 42/64/20 43/65/20
f 38/59/4 37/58/4 41/63/4 42/64/4
f 37/58/9 36/57/9 40/62/9 41/63/9
f 57/86/9 51/79/9 68/98/9 70/100/9
f 73/103/4 71/101/4 47/72/4 35/56/4
f 65/94/20 73/103/20 35/56/20 50/77/20
f 67/97/8 65/95/8 50/78/8 46/70/8
f 62/91/4 58/87/4 69/99/4 72/102/4
f 56/84/8 52/80/8 45/68/8 44/67/8
f 71/101/9 67/97/9 46/70/9 47/72/9
f 86/116/30 52/80/30 83/113/30
f 89/119/31 88/118/31 56/84/31
f 79/109/32 82/112/32 59/88/32
f 76/106/33 61/90/33 77/107/33
f 87/117/34 90/121/34 65/95/34
f 84/114/35 67/97/35 85/115/35
f 81/111/36 80/110/36 71/101/36
f 78/108/37 73/103/37 75/105/37
f 75/105/38 76/106/38 77/107/38 78/108/38
f 79/109/39 80/110/39 81/111/39 82/112/39
f 83/113/40 84/114/40 85/115/40 86/116/40
f 87/117/41 88/118/41 89/119/41 90/121/41
f 88/118/8 83/113/8 52/80/8 56/84/8
f 67/97/9 71/101/9 80/110/9 85/115/9
f 82/112/4 77/107/4 61/90/4 59/88/4
f 73/103/20 65/94/20 90/122/20 75/105/20
f 76/106/20 89/120/20 56/85/20 61/90/20
f 71/101/4 73/103/4 78/108/4 81/111/4
f 86/116/9 79/109/9 59/88/9 52/80/9
f 65/95/8 67/97/8 84/114/8 87/117/8
f 53/81/8 55/83/8 63/92/8 66/96/8
f 74/104/20 60/89/20 76/106/20 75/105/20
f 62/91/4 72/102/4 78/108/4 77/107/4
f 57/86/9 70/100/9 80/110/9 79/109/9
f 69/99/4 58/87/4 82/112/4 81/111/4
f 53/81/8 66/96/8 84/114/8 83/113/8
f 68/98/9 51/79/9 86/116/9 85/115/9
f 63/92/8 55/83/8 88/118/8 87/117/8
f 54/82/20 64/93/20 90/122/20 89/120/20
f 55/83/8 53/81/8 83/113/8 88/118/8
f 70/100/9 68/98/9 85/115/9 80/110/9
f 58/87/4 62/91/4 77/107/4 82/112/4
f 64/93/20 74/104/20 75/105/20 90/122/20
f 60/89/20 54/82/20 89/120/20 76/106/20
f 72/102/4 69/99/4 81/111/4 78/108/4
f 51/79/9 57/86/9 79/109/9 86/116/9
f 66/96/8 63/92/8 87/117/8 84/114/8
